<svg xmlns="http://www.w3.org/2000/svg" width="22" height="20" viewBox="0 0 22 20">
  <metadata><?xpacket begin="﻿" id="W5M0MpCehiHzreSzNTczkc9d"?>
<x:xmpmeta xmlns:x="adobe:ns:meta/" x:xmptk="Adobe XMP Core 5.6-c138 79.159824, 2016/09/14-01:09:01        ">
   <rdf:RDF xmlns:rdf="http://www.w3.org/1999/02/22-rdf-syntax-ns#">
      <rdf:Description rdf:about=""/>
   </rdf:RDF>
</x:xmpmeta>
                                                                                                    
                                                                                                    
                                                                                                    
                                                                                                    
                                                                                                    
                                                                                                    
                                                                                                    
                                                                                                    
                                                                                                    
                                                                                                    
                                                                                                    
                                                                                                    
                                                                                                    
                                                                                                    
                                                                                                    
                                                                                                    
                                                                                                    
                                                                                                    
                                                                                                    
                                                                                                    
                           
<?xpacket end="w"?></metadata>
<defs>
    <style>
      .cls-1 {
        fill-rule: evenodd;
      }
    </style>
  </defs>
  <path id="cart" class="cls-1" d="M1436.93,35.217l-3.71,8.56a0.821,0.821,0,0,1-.75.489h-10.21a0.819,0.819,0,0,1-.79-0.6l-3.32-12.038h-2.34a0.815,0.815,0,0,1,0-1.63h2.95a0.807,0.807,0,0,1,.78.6l3.33,12.038h9.06l3.01-6.929H1424.9a0.815,0.815,0,0,1,0-1.63h11.29A0.809,0.809,0,0,1,1436.93,35.217ZM1421.48,46.3a1.848,1.848,0,1,1-1.84,1.848A1.851,1.851,0,0,1,1421.48,46.3Zm11.41,0a1.853,1.853,0,0,1,1.97,1.712A1.864,1.864,0,0,1,1433.15,50h-0.14A1.85,1.85,0,0,1,1432.89,46.3Z" transform="translate(-1415 -30)"/>
</svg>
